<svg width="52" height="50" viewBox="0 0 52 50" fill="none" xmlns="http://www.w3.org/2000/svg">
<path d="M26.0166 0C12.1946 0 0.98996 10.9712 0.98996 24.5052C0.98996 38.0393 12.1946 49.0105 26.0166 49.0105C39.8386 49.0105 51.0432 38.0393 51.0432 24.5052C51.0432 10.9712 39.8386 0 26.0166 0ZM19.8903 34.6621H14.8224V18.6929H19.8903V34.6621ZM17.325 16.7325C15.7244 16.7325 14.6894 15.6221 14.6894 14.2488C14.6894 12.8474 15.7557 11.7702 17.3902 11.7702C19.0248 11.7702 20.0258 12.8474 20.0571 14.2488C20.0571 15.6221 19.0248 16.7325 17.325 16.7325ZM38.3996 34.6621H33.3317V25.8122C33.3317 23.7522 32.5965 22.3534 30.7638 22.3534C29.3639 22.3534 28.5323 23.3004 28.1647 24.2117C28.0291 24.5359 27.9953 24.9953 27.9953 25.4523V34.6596H22.9248V23.7854C22.9248 21.7918 22.8596 20.1249 22.7918 18.6903H27.1949L27.4269 20.9086H27.5286C28.196 19.8671 29.8305 18.3304 32.5652 18.3304C35.8995 18.3304 38.3996 20.518 38.3996 25.22V34.6621Z" fill="#333333"/>
</svg>
