<svg width="271" height="196" viewBox="0 0 271 196" fill="none" xmlns="http://www.w3.org/2000/svg">
<path d="M54.704 173.429H216.725C228.581 173.429 239.951 168.719 248.335 160.335C256.719 151.951 261.429 140.581 261.429 128.725V98C261.429 91.3317 258.78 84.9365 254.064 80.2213C249.349 75.5061 242.954 72.8571 236.286 72.8571C229.617 72.8571 223.222 75.5061 218.507 80.2213C213.792 84.9365 211.143 91.3317 211.143 98V113.086C211.143 115.753 210.083 118.311 208.197 120.197C206.311 122.083 203.753 123.143 201.086 123.143H70.3429C67.6755 123.143 65.1175 122.083 63.2314 120.197C61.3453 118.311 60.2857 115.753 60.2857 113.086V98C60.2857 91.3317 57.6367 84.9365 52.9215 80.2213C48.2063 75.5061 41.8112 72.8571 35.1429 72.8571C28.4746 72.8571 22.0794 75.5061 17.3642 80.2213C12.649 84.9365 10 91.3317 10 98V128.725C10 140.581 14.7099 151.951 23.0935 160.335C31.4771 168.719 42.8478 173.429 54.704 173.429Z" stroke="#50543D" stroke-width="18.8571"/>
<path d="M236.286 72.8571C236.286 61.1657 236.286 55.3326 235.318 50.48C233.378 40.7247 228.588 31.7637 221.555 24.7306C214.522 17.6974 205.561 12.908 195.806 10.968C190.953 10 185.12 10 173.429 10H98C86.3085 10 80.4754 10 75.6228 10.968C65.8675 12.908 56.9066 17.6974 49.8734 24.7306C42.8402 31.7637 38.0508 40.7247 36.1108 50.48C35.1428 55.3326 35.1428 61.1657 35.1428 72.8571" stroke="#50543D" stroke-width="18.8571"/>
<path d="M236.286 186V173.429M35.1428 186V173.429" stroke="#50543D" stroke-width="18.8571" stroke-linecap="round"/>
</svg>
