<svg width="80" height="80" viewBox="0 0 80 80" fill="none" xmlns="http://www.w3.org/2000/svg">
<path fill-rule="evenodd" clip-rule="evenodd" d="M69.177 67.3626C75.8892 60.2082 80 50.5842 80 40C80 17.9086 62.0914 0 40 0C17.9086 0 0 17.9086 0 40C0 50.6801 4.18568 60.3826 11.0061 67.5565C14.8583 61.3505 20.585 56.5137 27.3735 53.7577C23.7975 51.0757 21.156 47.3365 19.8232 43.0698C18.4903 38.8031 18.5338 34.2252 19.9473 29.9845C21.3609 25.7439 24.0729 22.0555 27.6992 19.4418C31.3254 16.8281 35.6822 15.4217 40.1522 15.4217C44.6222 15.4217 48.9789 16.8281 52.6052 19.4418C56.2315 22.0555 58.9435 25.7439 60.357 29.9845C61.7706 34.2252 61.814 38.8031 60.4812 43.0698C59.1484 47.3365 56.5069 51.0757 52.9309 53.7577C59.6486 56.4849 65.3264 61.2497 69.177 67.3626ZM64.0855 71.9385C58.9977 63.2239 50.0603 58.0257 40.1522 58.0257C30.2067 58.0257 21.2392 63.2604 16.1613 72.0374C16.1504 72.0579 16.1392 72.0783 16.1278 72.0985C22.791 77.0622 31.0524 80 40 80C49.0433 80 57.3857 76.999 64.0855 71.9385ZM28.0359 28.632C26.4347 31.0284 25.58 33.8458 25.58 36.7279C25.5845 40.5913 27.1212 44.2952 29.853 47.0271C32.5849 49.7589 36.2888 51.2956 40.1522 51.3001C43.0343 51.3001 45.8517 50.4454 48.2481 48.8442C50.6444 47.243 52.5122 44.9671 53.6151 42.3044C54.718 39.6417 55.0066 36.7117 54.4444 33.885C53.8821 31.0583 52.4942 28.4618 50.4563 26.4238C48.4183 24.3858 45.8218 22.998 42.9951 22.4357C40.1684 21.8734 37.2384 22.162 34.5757 23.265C31.9129 24.3679 29.6371 26.2356 28.0359 28.632Z" fill="#D9D9D9"/>
</svg>
