<svg width="52" height="51" viewBox="0 0 52 51" fill="none" xmlns="http://www.w3.org/2000/svg">
<path d="M25.548 0C18.7723 0 12.274 2.63673 7.48284 7.33013C2.69166 12.0235 0 18.3892 0 25.0266C0 31.6641 2.69166 38.0297 7.48284 42.7231C12.274 47.4165 18.7723 50.0533 25.548 50.0533C32.3238 50.0533 38.822 47.4165 43.6132 42.7231C48.4044 38.0297 51.096 31.6641 51.096 25.0266C51.096 18.3892 48.4044 12.0235 43.6132 7.33013C38.822 2.63673 32.3238 0 25.548 0ZM3.15092 26.9175H10.276C10.3895 29.448 10.75 31.9618 11.3547 34.4255H5.22315C4.07975 32.0643 3.3779 29.5214 3.15092 26.9175ZM27.4783 11.9016V3.30908C30.2139 4.32745 32.4617 6.31122 33.7802 8.87055C34.3621 9.83546 34.8759 10.8393 35.313 11.8737L27.4783 11.9016ZM36.6188 15.6555C37.2774 18.1109 37.6691 20.6275 37.7827 23.1635H27.4783V15.6555H36.6188ZM23.6177 3.30908V11.9016H15.783C16.2209 10.8663 16.7331 9.86269 17.3159 8.89836C18.6287 6.32855 20.8772 4.33422 23.6177 3.30908ZM23.6177 15.6555V23.1635H13.3417C13.4553 20.6275 13.847 18.1109 14.5056 15.6555H23.6177ZM10.276 23.1357H3.15092C3.3779 20.5318 4.07975 17.9889 5.22315 15.6277H11.3547C10.7489 18.0905 10.3876 20.6049 10.276 23.1357ZM13.3417 26.9175H23.6177V34.4255H14.5056C13.8471 31.9703 13.457 29.4535 13.3417 26.9175ZM23.6461 38.0405V46.6329C20.9105 45.6146 18.6627 43.6308 17.3443 41.0715C16.7615 40.1071 16.2493 39.1036 15.8114 38.0683L23.6461 38.0405ZM27.4783 46.6329V38.1795H35.313C34.8751 39.2148 34.3629 40.2184 33.7802 41.1827C32.4617 43.742 30.2139 45.7258 27.4783 46.7442V46.6329ZM27.4783 34.2865V26.7785H37.7543C37.639 29.3145 37.2489 31.8313 36.5904 34.2865H27.4783ZM40.8484 26.7785H47.9735C47.7465 29.3824 47.0447 31.9253 45.9013 34.2865H39.7414C40.3375 31.8672 40.698 29.4007 40.8201 26.9175L40.8484 26.7785ZM40.8484 23.0245C40.7184 20.5394 40.3478 18.072 39.7414 15.6555H45.8729C47.0169 18.0192 47.718 20.5608 47.9451 23.1635L40.8484 23.0245ZM43.6871 11.9016H38.6059C37.6865 9.37192 36.3539 7.0053 34.6601 4.8941C38.1925 6.44736 41.2608 8.85957 43.5736 11.9016H43.6871ZM16.4359 4.8941C14.7421 7.0053 13.4095 9.37192 12.4901 11.9016H7.52247C9.8352 8.85957 12.9035 6.44736 16.4359 4.8941ZM7.49408 38.2629H12.4901C13.4095 40.7926 14.7421 43.1592 16.4359 45.2704C12.8937 43.6937 9.82448 41.2521 7.52247 38.1795L7.49408 38.2629ZM34.6318 45.2704C36.3255 43.1592 37.6581 40.7926 38.5775 38.2629H43.5736C41.2467 41.2642 38.1796 43.6371 34.6601 45.1592L34.6318 45.2704Z" fill="#333333"/>
</svg>
