<svg width="192" height="44" viewBox="0 0 192 44" fill="none" xmlns="http://www.w3.org/2000/svg">
<path fill-rule="evenodd" clip-rule="evenodd" d="M17.1427 19.0657C16.7615 21.5558 15.1367 22.4151 13.4392 22.4151C10.7877 22.4151 9.83479 21.5092 10.102 19.7625C10.3837 17.9216 11.9646 17.0119 15.5581 17.0119H17.4621L17.1427 19.0657ZM26.5647 16.2252L27.2154 11.9761C28.4526 3.89235 24.1066 0.0584106 16.5189 0.0584106C8.6747 0.0584106 4.6097 3.44442 4.0958 6.84048L3.5819 10.1844C6.05451 8.38926 8.13471 7.18519 13.2726 7.18519C17.019 7.18519 18.6777 7.73822 18.3415 9.98314L18.1597 11.138H16.8166C6.82816 11.138 1.96045 14.2266 1.03103 20.3018C0.0758976 26.5472 6.13128 29.0493 11.4242 29.0493C21.4048 29.0485 25.0349 26.2006 26.5647 16.2252Z" fill="#622C25"/>
<path fill-rule="evenodd" clip-rule="evenodd" d="M46.6799 0.114502C37.5422 0.114502 30.4631 6.57981 29.1487 15.1328C27.8183 23.7949 32.6983 29.0759 40.5317 29.0759C44.0239 29.0759 46.204 27.2383 47.6145 25.1954L45.4557 37.6583C44.8128 41.8321 46.1086 43.7744 50.7508 43.7744H53.6483L58.4448 14.1929C59.7964 5.37872 55.7683 0.114502 46.6799 0.114502ZM44.7241 7.32364C48.317 7.32364 49.9559 9.35726 49.1212 14.791C48.399 19.4717 45.835 21.5105 43.2924 21.5105C40.0483 21.5105 37.9368 19.6718 38.7832 14.1467C39.4849 9.61924 42.427 7.32364 44.7241 7.32364Z" fill="#622C25"/>
<path fill-rule="evenodd" clip-rule="evenodd" d="M89.4413 16.1747L91.0464 5.70629C91.6572 1.70465 89.8032 0.114502 86.0147 0.114502H82.3201L79.9086 15.8252C79.2412 20.1618 77.2534 21.4658 75.0036 21.4658C72.4118 21.4658 70.7035 20.214 71.3214 16.1747L72.9257 5.70629C73.5655 1.50453 71.9862 0.114502 67.8482 0.114502H64.1521L61.732 15.9183C60.3774 24.7065 64.5635 29.0495 73.4388 29.0495C81.8845 29.0495 88.0949 24.9692 89.4413 16.1747Z" fill="#622C25"/>
<path fill-rule="evenodd" clip-rule="evenodd" d="M101.205 29.0495H98.0174C93.9647 29.0495 91.9702 27.4578 92.5862 23.4573L96.1555 0.114166H98.5037C103.738 0.114166 105.412 1.66258 104.648 6.6473L101.205 29.0495Z" fill="#622C25"/>
<path fill-rule="evenodd" clip-rule="evenodd" d="M131.661 29.0495L134.06 13.3872C135.295 5.24344 132.138 0.114502 122.405 0.114502C113.676 0.114502 107.639 5.24382 106.432 13.1379L104.862 23.4573C104.246 27.4574 106.24 29.0495 110.297 29.0495H113.475L115.951 12.9825C116.466 9.64719 118.239 7.79432 120.988 7.79432C124.172 7.79432 125.164 9.44632 124.613 13.1379L123.014 23.4573C122.384 27.6531 123.471 29.0495 127.653 29.0495H131.661V29.0495Z" fill="#622C25"/>
<path fill-rule="evenodd" clip-rule="evenodd" d="M136.571 15.1733C135.342 23.2567 140.841 29.0494 148.669 29.0494C158.163 29.0494 164.494 23.2567 165.853 14.2771C167.174 5.79118 161.288 0.106598 153.817 0.106598C145.17 0.106598 137.972 6.09937 136.571 15.1733ZM156.354 15.1241C155.769 18.9268 153.41 21.6636 150.401 21.6636C147.057 21.6636 145.312 19.3613 146.118 14.0773C146.706 10.3373 149.465 7.58816 152.073 7.58816C155.365 7.58816 157.109 10.1849 156.354 15.1241Z" fill="#622C25"/>
<path fill-rule="evenodd" clip-rule="evenodd" d="M190.23 19.4087C190.948 14.7724 188.225 12.2826 183.758 11.541C178.152 10.5799 177.608 10.2315 177.782 9.18915C177.938 8.03726 179.247 7.08846 182.778 7.08846C186.476 7.08846 189.219 8.03726 190.877 9.39151L191.556 6.5399C192.173 2.44286 188.867 6.10352e-05 182.766 6.10352e-05C176.49 6.10352e-05 169.734 3.34954 168.727 9.93448C168.054 14.3211 170.294 16.5761 175.133 17.2733C180.702 18.0663 181.279 18.5553 181.085 19.8119C180.878 21.1669 179.664 21.9592 176.222 21.9592C172.329 21.9592 169.734 20.9075 168.137 19.5633L167.464 22.3087C166.854 26.3115 169.135 29.0494 176.635 29.0494C184.164 29.0494 189.335 25.3075 190.23 19.4087Z" fill="#622C25"/>
</svg>
