<svg width="51" height="51" viewBox="0 0 51 51" fill="none" xmlns="http://www.w3.org/2000/svg">
<path fill-rule="evenodd" clip-rule="evenodd" d="M25.0117 50.0235C38.8253 50.0235 50.0235 38.8253 50.0235 25.0117C50.0235 11.1981 38.8253 0 25.0117 0C11.1981 0 0 11.1981 0 25.0117C0 38.8253 11.1981 50.0235 25.0117 50.0235ZM17.0008 39.0594V11.6493H11.6493V39.0594H17.0008ZM33.062 11.6493H19.6765V39.0594H33.062C34.5363 39.0594 35.731 37.8382 35.731 36.3321V14.3766C35.731 12.88 34.5363 11.6493 33.062 11.6493ZM39.7447 17.1313H37.0689V22.6133H39.7447V17.1313ZM39.7447 25.3543H37.0689V30.8363H39.7447V25.3543ZM29.5958 24.5515C29.094 25.0655 28.4134 25.3543 27.7038 25.3543C26.9941 25.3543 26.3136 25.0655 25.8118 24.5515C25.31 24.0374 25.028 23.3403 25.028 22.6133C25.028 21.8863 25.31 21.1891 25.8118 20.6751C26.3136 20.1611 26.9941 19.8723 27.7038 19.8723C28.4134 19.8723 29.094 20.1611 29.5958 20.6751C30.0976 21.1891 30.3795 21.8863 30.3795 22.6133C30.3795 23.3403 30.0976 24.0374 29.5958 24.5515ZM31.7174 30.8363H23.6902C23.6902 29.7459 24.113 28.7001 24.8657 27.929C25.6184 27.158 26.6393 26.7248 27.7038 26.7248C28.7683 26.7248 29.7892 27.158 30.5419 27.929C31.2946 28.7001 31.7174 29.7459 31.7174 30.8363Z" fill="#333333"/>
</svg>
